<svg width="32" height="32" viewBox="0 0 32 32" fill="none" xmlns="http://www.w3.org/2000/svg">
<g clip-path="url(#clip0_1_2)">
<path d="M5.25 10.56V12.43C5.75567 11.7315 6.42016 11.1632 7.18866 10.772C7.95717 10.3808 8.80766 10.1779 9.67 10.18C10.4879 10.1474 11.299 10.3399 12.0149 10.7367C12.7309 11.1335 13.3241 11.7192 13.73 12.43C14.2538 11.7215 14.9388 11.1479 15.7282 10.7567C16.5177 10.3654 17.389 10.1677 18.27 10.18C19.7112 10.1404 21.1096 10.6724 22.16 11.66C23.16 12.66 23.58 14 23.58 16.14V24.89H18V17C18 15.43 17.44 14.66 16.31 14.66C15.18 14.66 14.5 15.49 14.5 17V24.92H9V17C9 15.43 8.46 14.66 7.34 14.66C6.22 14.66 5.55 15.49 5.55 17V24.92H0V10.56H5.25Z" fill="#08192D"/>
<path d="M25.8 11.28C26.0065 11.2915 26.2135 11.2915 26.42 11.28C27.64 11.28 28.17 10.98 28.17 10.28C28.17 9.58 27.61 9.18 26.78 9.18C25.78 9.18 25.3 9.63 25.27 10.72H21.89C21.97 8.02 23.69 6.57 26.89 6.57C29.71 6.57 31.6 7.96 31.6 9.98C31.5907 10.4308 31.4556 10.87 31.21 11.2481C30.9644 11.6262 30.618 11.9282 30.21 12.12C30.7661 12.3224 31.2414 12.7001 31.5643 13.1961C31.8871 13.6921 32.04 14.2795 32 14.87C32 17.21 29.86 18.87 26.81 18.87C23.37 18.87 21.56 17.21 21.56 14.07H25C25 15.43 25.59 16.07 26.78 16.07C27.7 16.07 28.32 15.57 28.32 14.83C28.32 14.09 27.64 13.52 26.54 13.52H25.8V11.28Z" fill="url(#paint0_linear_1_2)"/>
</g>
<defs>
<linearGradient id="paint0_linear_1_2" x1="31.12" y1="8.48" x2="22.29" y2="17.32" gradientUnits="userSpaceOnUse">
<stop stop-color="#88BD24"/>
<stop offset="1" stop-color="#4CAF4C"/>
</linearGradient>
<clipPath id="clip0_1_2">
<rect width="32" height="32" fill="white"/>
</clipPath>
</defs>
</svg>
